<svg xmlns="http://www.w3.org/2000/svg" width="20" height="30" viewBox="-10 0 350 531"><title>Asset 1</title><polygon class="unit__background" stroke-width="10" points="165.25 19.82 6.04 19.82 78.8 225.82 165.25 225.82 251.7 225.82 324.47 19.82 165.25 19.82" fill="#aca996"/><text transform="translate(59 171.47)" font-size="207.02" stroke="#fff" stroke-miterlimit="10" stroke-width="4" font-family="AnonymousPro-Bold, Anonymous Pro" font-weight="700">12</text><circle class="unit__background" stroke-width="10" cx="165.35" cy="355.62" r="165.35" fill="#b3b5b0"/><polygon points="151.52 356.12 188.66 318.32 224.15 322.63 262.37 332 311.95 348.83 312.66 361.43 284.52 360.44 151.52 356.12" fill="#8d8a6b"/><polygon points="124.99 420.46 106.59 403.23 102.24 394.94 101.06 384.67 104.22 374.41 111.32 366.52 122.38 362.17 138.16 361.78 151.19 360.6 174.43 359.81 284.42 360.44 284.42 363.28 302.05 368.06 308.42 375.69 308.42 381.52 307.11 393.27 302.61 400.56 286.11 418.14 155.48 433.06 138.57 431.74 124.99 420.46" fill="#58584c"/><polygon points="151.52 356.12 128.19 355.05 117.09 355.62 38.44 355.32 52.7 348.1 70.27 334.2 77.52 329.43 84.86 323.95 123 319.64 188.66 318.32 151.52 356.12" fill="#7a7a62"/><path d="M60.4,354.94l-22,.39-12.9,11.16a3.53,3.53,0,0,0-.63.72L19.09,376a4.79,4.79,0,0,0-.78,2.95l.81,12.69a3.64,3.64,0,0,0,1,2.24l12.05,13,19.23,15.92L66,425.12l59-5.62-18.4-16.27-4.24-8.1a1.4,1.4,0,0,1-.13-.41l-1.13-9.8a1.17,1.17,0,0,1,0-.48l3-9.8a1.17,1.17,0,0,1,.23-.42L105.7,373l.81-.88,2-2.17,2.79-3.39,11.05-4.34,15.79-.39,13-1.18,23-.79,109.72.63-132.35-4.31-23.27-1.19,0-.12h-.08v.11H60.4" fill="#a33e3e"/><polygon points="123 319.64 122 306.05 60.32 296.43 59 293.78 60.98 289.47 123.66 297.76 128.97 293.45 134.94 291.79 142.57 286.48 189.33 281.84 202.92 282.17 216.19 284.16 224.15 287.14 234.76 299.08 235.75 319.64 250.01 322.3 251.9 326.61 262.42 328.6 262.42 332 224.17 322.63 188.67 318.32 123 319.64" fill="#a33e3e"/></svg>