<svg xmlns="http://www.w3.org/2000/svg" viewBox="0 0 330.7 520.97" width="20" height="30">
  <defs>
    <style>
      .cls-1 {
        fill: #aca996;
      }

      .cls-2 {
        font-size: 207.02px;
        stroke: #fff;
        stroke-miterlimit: 10;
        stroke-width: 4px;
        font-family: AnonymousPro-Bold, Anonymous Pro;
        font-weight: 700;
      }

      .cls-3 {
        fill: #b3b5b0;
      }

      .cls-4 {
        fill: #7a7a62;
      }

      .cls-5 {
        fill: #fcdfb5;
      }

      .cls-6 {
        fill: #e9dab9;
      }

      .cls-7 {
        fill: #867142;
      }

      .cls-8 {
        fill: #724116;
      }

      .cls-9 {
        fill: #0f0b08;
      }
    </style>
  </defs>
  <title>Asset 2</title>
  <g id="Layer_2" data-name="Layer 2">
    <g id="Layer_1-2" data-name="Layer 1">
      <g>
        <polygon class="cls-1" points="165.25 19.82 6.04 19.82 78.8 225.82 165.25 225.82 251.7 225.82 324.47 19.82 165.25 19.82"/>
        <text class="cls-2" transform="translate(59 171.47)">12</text>
        <circle class="cls-3" cx="165.35" cy="355.62" r="165.35"/>
        <g>
          <polygon class="cls-4" points="139.71 245.56 143.41 237.98 143.41 226.79 147.61 221.43 151.47 219.17 154.82 217.71 159.29 216.82 162.37 216.82 165.26 216.82 168.13 217.67 170.76 219.74 172.45 220.87 173.71 222.75 174.59 225.19 176.03 227.43 178.12 228.24 180.33 229.2 181.41 231.15 181.41 233.86 179.61 235.31 166.24 235.95 160.45 236.44 156.26 238.2 150.79 240.62 149.02 242.38 147.04 244.25 145.65 245.56 142.35 247.21 139.71 245.56"/>
          <polygon class="cls-5" points="148.83 247.33 147.02 244.31 150.78 240.65 160.57 236.45 177.41 235.43 177.41 237.4 176.16 239.81 175.13 241.36 176.17 242.54 176.41 243.06 176.41 243.51 175.97 244.47 174.91 245.09 174.48 245.41 174.41 246.14 174.41 247.05 174.03 247.65 173.36 248.32 173.2 249.05 173.41 249.57 173.41 250.26 173.17 251.29 172.49 251.66 172.49 252.12 172.87 252.85 172.65 254.21 172.23 254.67 171.5 255.46 170.35 255.82 166.87 255.82 164.15 254.93 162.33 254.85 161.13 254.43 159.1 252.96 156.97 252.54 148.83 247.33"/>
          <polygon class="cls-6" points="168.93 257.56 170.35 255.82 166.87 255.82 164.15 254.93 162.33 254.85 161.13 254.43 159.1 252.96 156.76 252.54 148.41 247.33 148.41 250.26 149.61 252.42 150.62 255.19 151.73 257.52 153.67 261.7 158.08 274.65 163.81 265.81 166.72 262.13 168.93 257.56"/>
          <polyline class="cls-7" points="148.84 250.14 148.79 250.21 147.01 252.65 145.7 253.29 141.54 255.71 136.63 258.2 129.32 260.85 123.16 264.56 116.15 274.72 115.33 288.88 117.8 298 118.63 311.17 120.07 336.82 124.42 336.82 128.09 339.82 131.78 345.88 142.62 343.92 152.59 343.05 165.35 342.18 177.16 344.11 184.46 345.82 192.27 345.82 194.41 345.86 194.41 335.79 197.04 330.9 202.96 321.58 205.41 313.78 205.41 308.46 205.41 303 201.57 296 197.89 289.28 190.09 265.65 186.41 260.45 170.35 255.73 158.09 274.65"/>
          <path class="cls-6" d="M162.55,274.72"/>
          <polygon class="cls-8" points="131.94 433.16 146.41 439.26 153.61 436.25 155.41 429.86 155.41 414.9 165.09 374.58 169.85 396.15 171.94 402.56 173.99 416.71 171.31 423.45 174.01 429.86 175.71 434.58 185.15 435.59 195.59 433.57 198.97 420.76 201.66 411.66 199.64 402.22 196.94 388.4 195.6 365.81 195.26 353.62 194.84 345.86 184.46 345.76 165.35 342.18 142.62 343.91 131.78 345.86 131.94 433.16"/>
          <polygon class="cls-9" points="129.32 488.41 140.88 492.52 146.26 483.45 150.41 480.15 150.41 469.88 152.38 459.54 154.1 436.25 146.53 439.26 132 433.16 129.32 488.41"/>
          <polygon class="cls-9" points="181.64 478 175.68 434.54 185.54 435.57 196.41 433.57 196.41 455.73 196.41 464.41 203.18 471.08 209.13 476.03 212.73 480.15 213.08 485.92 206.46 488.39 198.61 487.57 188.71 481.38 181.64 478"/>
          <polygon class="cls-9" points="114.95 273.08 124.55 264.5 142.51 274.75 155.5 289.22 174.29 307 185.47 325.1 205.32 346.04 212.44 354.34 218.67 362.53 214.66 369.56 208.25 360.88 204.67 352.18 196.92 345.5 189.53 337.04 173.97 325.65 162.97 317.49 145.21 303.12 126.81 290.03 121.42 280.98 114.95 273.08"/>
        </g>
      </g>
    </g>
  </g>
</svg>
